<svg version="1.1" xmlns="http://www.w3.org/2000/svg" x="0" y="0" viewBox="0 0 245.4 315.2" xml:space="preserve"><path style="fill: #fff;" class="st0" d="M202.4 116.1l25.1-43.9c.8-1.4.8-3.1 0-4.5l-26.4-46.1v-.1c-.1-.1-.2-.2-.2-.4l-.1-.1c-.1-.1-.2-.3-.3-.4-.1-.1-.3-.2-.4-.3l-.1-.1c-.1-.1-.2-.2-.3-.2 0 0-.1 0-.1-.1-.3-.2-.6-.3-1-.4h-.1c-.1 0-.3-.1-.4-.1H48h-.1c-.1 0-.3 0-.4.1h-.1c-.3.1-.7.2-1 .4 0 0-.1 0-.1.1-.1.1-.2.1-.3.2l-.1.1c-.1.1-.3.2-.4.3-.1.1-.2.3-.3.4l-.1.1c-.1.1-.2.2-.2.4v.1l-27 46.1c-.8 1.4-.8 3.1 0 4.5l25.8 45.1v148.5c0 .1 0 .3.1.4v.1c.1.3.2.7.4 1 0 0 0 .1.1.1.1.1.1.2.2.3l.1.1c.1.1.2.3.3.4.1.1.3.2.4.3l.1.1c.1.1.2.2.4.2h.1L92 295.2c.7.4 1.5.6 2.2.6.8 0 1.5-.2 2.2-.6l46.1-26.4h.1c.1-.1.2-.2.4-.2l.1-.1c.1-.1.3-.2.4-.3.1-.1.2-.3.3-.4l.1-.1c.1-.1.2-.2.2-.3 0 0 0-.1.1-.1.2-.3.3-.6.4-1v-.1c0-.1.1-.3.1-.4v-.1-52.9h52.9c.1 0 .3 0 .4-.1h.1c.3-.1.7-.2 1-.4 0 0 .1 0 .1-.1.1-.1.2-.1.3-.2l.1-.1c.1-.1.3-.2.4-.3.1-.1.2-.2.3-.4l.1-.1c.1-.1.2-.2.2-.4v-.1l26.4-46.1c.8-1.4.8-3.1 0-4.5l-24.6-43.9zm-34.2 41.6H94.5c-1.1-.1-2.2.3-3.1 1l-.1.1-.2.2c-.8.8-1.3 1.9-1.3 3.2v74l-37.2 21.3v-137h136.8l-21.2 37.2zM136 257.4l-37.2-21.3V173l37.2 37.2v47.2zm32.2-192h-91L55.9 28.3h133.6l-21.3 37.1zm-91 9h91l21.3 37.2H55.9l21.3-37.2zm120 32.6L176 69.9l21.2-37.1 21.2 37.1-21.2 37.1zm-149-74.2l21.2 37.1L48.2 107 26.9 69.9l21.3-37.1zm46.1 253.6l-37.1-21.2L94.3 244l37.1 21.2-37.1 21.2zm48-82.6l-37.2-37.2h63.1l21.3 37.2h-47.2zm54.9-4.5L176 162.2l21.2-37.1 21.2 37.1-21.2 37.1z"/><circle cx="223.4" cy="26" r="4.4" fill="none" stroke="#fff"/><path style="fill: #fff;" d="M223.1 25.6c.3 0 .5-.1.6-.2.1-.1.2-.3.2-.5s-.1-.4-.2-.5c-.1-.1-.3-.1-.6-.1h-.6v1.3h.6m-.6.9v2h-1.3v-5.2h2c.7 0 1.2.1 1.5.3.3.2.5.6.5 1.1 0 .3-.1.6-.2.8-.2.2-.4.4-.7.5.2 0 .3.1.5.3.1.1.3.4.4.7l.7 1.5h-1.4l-.6-1.3c-.1-.3-.3-.4-.4-.5-.1-.1-.3-.1-.5-.1h-.5"/></svg>